<svg xmlns="http://www.w3.org/2000/svg" width="343" height="70" fill="none" viewBox="0 0 343 70">
  <path fill="#FDFAFB" d="M144.399 55.787c.094 0 .142.141.142.424 0 .282-.048.424-.142.424-1.608 0-2.885-.024-3.831-.071l-5.251-.07-5.321.07c-.899.047-2.129.07-3.689.07-.142 0-.213-.14-.213-.423s.071-.424.213-.424c1.986 0 3.334-.235 4.044-.706.709-.471 1.064-1.46 1.064-2.966l-.071-1.201-1.49-28.885-14.616 34.111c-.094.189-.284.283-.567.283-.284 0-.473-.094-.568-.283l-17.95-33.97-.568 25.495c-.047 2.543.45 4.544 1.49 6.003 1.088 1.413 2.602 2.12 4.541 2.12.142 0 .213.14.213.423 0 .282-.071.424-.213.424-1.277 0-2.27-.024-2.98-.071l-3.902-.07-4.47.07c-.757.047-1.774.07-3.051.07-.142 0-.213-.14-.213-.423s.071-.424.213-.424c1.94 0 3.476-.73 4.612-2.19 1.135-1.459 1.726-3.436 1.773-5.932l.639-29.238-.071-.07c-.946-1.743-1.94-3.014-2.98-3.814-.993-.8-2.152-1.201-3.477-1.201-.141 0-.212-.141-.212-.424 0-.282.07-.424.213-.424l3.334.071c.662.047 1.514.07 2.554.07l3.76-.07c.426-.047.97-.07 1.633-.07.615 0 1.088.211 1.419.635.331.424.946 1.436 1.844 3.037l15.468 28.885 13.48-30.792c.284-.66.568-1.107.851-1.342.332-.282.757-.424 1.278-.424.425 0 .898.024 1.419.071.567.047 1.206.07 1.915.07l4.186-.07c.663-.047 1.609-.07 2.838-.07.142 0 .213.14.213.423s-.071.424-.213.424c-2.223 0-3.831.447-4.824 1.342-.994.894-1.443 2.283-1.348 4.167l1.702 32.063c.095 1.46.261 2.519.497 3.178.284.66.757 1.107 1.419 1.342.71.235 1.798.353 3.264.353zM190.476 12.494c.094 0 .141.142.141.424 0 .283-.047.424-.141.424-1.467 0-3.264.918-5.393 2.754-2.128 1.79-4.02 4.05-5.676 6.78l-7.379 12.289v15.749c0 1.46.119 2.519.355 3.178.237.66.686 1.107 1.348 1.342.71.235 1.821.353 3.335.353.142 0 .213.141.213.424 0 .282-.071.424-.213.424a74.55 74.55 0 01-3.689-.071l-5.322-.07-5.25.07c-.946.047-2.223.07-3.831.07-.095 0-.142-.14-.142-.423s.047-.424.142-.424c1.513 0 2.625-.118 3.334-.353.71-.235 1.183-.683 1.419-1.342.284-.706.426-1.765.426-3.178V36.648l-10.359-16.032c-1.75-2.73-3.216-4.614-4.399-5.65-1.135-1.083-2.105-1.624-2.909-1.624-.142 0-.213-.141-.213-.424 0-.282.071-.424.213-.424l2.2.071c1.04.094 1.774.141 2.199.141 1.656 0 4.044-.047 7.166-.141l4.683-.07c.095 0 .142.14.142.423s-.047.424-.142.424c-.804 0-1.443.188-1.916.565-.425.377-.638.87-.638 1.483 0 .753.331 1.648.993 2.684l9.72 15.255 6.528-11.088c1.277-2.12 1.915-3.932 1.915-5.439 0-1.13-.354-1.977-1.064-2.542-.662-.612-1.632-.918-2.909-.918-.142 0-.213-.141-.213-.424 0-.282.071-.424.213-.424l3.761.071c2.175.094 4.115.141 5.817.141.805 0 1.774-.047 2.909-.141l2.626-.07zM240.293 55.787c.094 0 .142.141.142.424 0 .282-.048.424-.142.424h-12.629c-1.041 0-2.98-1.86-5.818-5.58-2.838-3.766-6.268-9.016-10.288-15.749-.379.047-.923.07-1.632.07-1.845 0-3.146-.023-3.902-.07v15.608c0 1.46.118 2.519.354 3.178.237.66.686 1.107 1.348 1.342.71.235 1.822.353 3.335.353.095 0 .142.141.142.424 0 .282-.047.424-.142.424a74.55 74.55 0 01-3.689-.071l-5.393-.07-5.179.07c-.946.047-2.223.07-3.831.07-.142 0-.213-.14-.213-.423s.071-.424.213-.424c1.513 0 2.601-.118 3.264-.353.709-.235 1.182-.683 1.419-1.342.283-.706.425-1.765.425-3.178v-32.7c0-1.412-.118-2.447-.355-3.106-.236-.66-.709-1.107-1.419-1.342-.709-.283-1.797-.424-3.263-.424-.095 0-.142-.141-.142-.424 0-.282.047-.424.142-.424l3.76.071c2.176.094 3.902.141 5.179.141 1.609 0 3.288-.07 5.038-.212a97.225 97.225 0 012.27-.14 63.17 63.17 0 013.122-.071c4.305 0 7.639.8 10.004 2.4 2.365 1.555 3.548 3.744 3.548 6.569 0 2.59-.71 4.944-2.129 7.062-1.419 2.072-3.311 3.743-5.676 5.015 3.784 5.65 6.953 10.075 9.508 13.277 2.554 3.202 4.824 5.532 6.811 6.992 1.986 1.46 3.926 2.19 5.818 2.19zM206.024 33.33c1.135.188 2.507.282 4.115.282 2.743 0 4.706-.753 5.889-2.26 1.229-1.554 1.844-4.025 1.844-7.415 0-3.861-.567-6.521-1.702-7.981-1.136-1.46-2.767-2.19-4.896-2.19-1.892 0-3.24.354-4.044 1.06-.804.706-1.206 1.883-1.206 3.531V33.33zM290.897 12.494c.095 0 .142.142.142.424 0 .283-.047.424-.142.424-1.892 0-3.381.753-4.469 2.26-1.088 1.46-1.632 3.437-1.632 5.932v36.16c0 .141-.118.235-.355.282-.189.047-.331.024-.426-.07L250.74 20.192v27.473c0 2.496.52 4.473 1.56 5.933 1.041 1.46 2.484 2.19 4.328 2.19.095 0 .142.14.142.423 0 .282-.047.424-.142.424-1.324 0-2.341-.024-3.05-.071l-3.832-.07-4.399.07c-.804.047-1.963.07-3.476.07-.142 0-.213-.14-.213-.423s.071-.424.213-.424c2.081 0 3.713-.73 4.895-2.19 1.23-1.459 1.845-3.436 1.845-5.932V17.791c-1.561-1.695-2.909-2.848-4.044-3.46-1.088-.66-2.223-.99-3.406-.99-.094 0-.142-.14-.142-.423 0-.282.048-.424.142-.424l2.98.071c.615.047 1.514.07 2.696.07l5.393-.07c.662-.047 1.466-.07 2.412-.07.378 0 .662.094.851.282.189.188.521.588.994 1.2.804 1.083 1.371 1.813 1.702 2.19l24.549 28.179V21.534c0-2.542-.52-4.543-1.561-6.003-1.04-1.46-2.483-2.19-4.328-2.19-.094 0-.142-.14-.142-.423 0-.282.048-.424.142-.424l3.051.071c1.514.094 2.791.141 3.832.141.946 0 2.27-.047 3.973-.141l3.192-.07zM342.645 55.787c.237 0 .355.141.355.424 0 .282-.118.424-.355.424-.946 0-2.412-.047-4.399-.142-2.081-.094-3.571-.14-4.47-.14-1.182 0-2.625.046-4.328.14-1.608.094-2.885.142-3.831.142-.189 0-.284-.142-.284-.424 0-.283.095-.424.284-.424 1.23 0 2.105-.118 2.625-.353.568-.282.852-.753.852-1.412 0-.8-.473-2.143-1.419-4.026l-4.825-9.534h-17.454l-2.767 6.144c-.615 1.365-.922 2.637-.922 3.814 0 1.695.591 3.013 1.774 3.955 1.229.941 2.861 1.412 4.895 1.412.237 0 .355.141.355.424 0 .282-.118.424-.355.424-.851 0-2.081-.047-3.689-.142a91.1 91.1 0 00-4.683-.14c-1.277 0-2.814.046-4.612.14-1.608.094-2.909.142-3.902.142-.189 0-.284-.142-.284-.424 0-.283.095-.424.284-.424 1.324 0 2.436-.259 3.335-.777.898-.565 1.797-1.53 2.696-2.895.899-1.413 1.963-3.485 3.193-6.215l15.396-33.688c.094-.141.307-.212.638-.212.379 0 .592.07.639.212l17.738 34.747c1.655 3.343 3.027 5.65 4.115 6.921s2.223 1.907 3.405 1.907zm-36.326-17.303h15.467l-8.159-16.102-7.308 16.102z"/>
  <path fill="#AE2869" d="M35 0L17.5 10l-4.375 2.5L35 50l21.875-37.5L52.5 10 35 0zm0 5l13.125 7.5L35 20l-13.125-7.5L35 5zM21.875 37.5L0 50l35 20 35-20-21.875-12.5L35 60 21.875 37.5z"/>
</svg>
