<svg xmlns="http://www.w3.org/2000/svg" width="18" height="18" fill="currentColor" viewBox="0 0 18 18">
  <path fill-rule="evenodd" d="M14 5h-1.441l1.565 3.13a3 3 0 11-.894.448l-.367-.734-3.501 3.501a.498.498 0 01-.37.155H5.958a3 3 0 11-1.22-2.945l1.525-1.526L5.704 6H5a.5.5 0 010-1h2a.5.5 0 010 1h-.158l.273.5h5.076l-.596-1.191A.905.905 0 0112.405 4H14a1.5 1.5 0 011.5 1.5V6a.5.5 0 01-1 0v-.5A.5.5 0 0014 5zM6.763 7.944L5.445 9.262c.258.361.437.782.514 1.238h2.199L6.763 7.944zm7.79 3.28l-.866-1.732a2 2 0 10.894-.448l.866 1.732a.5.5 0 11-.894.448zM7.809 7.5l1.328 2.656L11.793 7.5H7.809zM4.723 9.984c.094.16.167.332.214.516h-.73l.516-.516zm-.707-.707l-1.37 1.37A.5.5 0 003 11.5h1.937a2 2 0 11-.921-2.223z" clip-rule="evenodd"/>
</svg>
