<svg xmlns="http://www.w3.org/2000/svg" width="18" height="18" fill="currentColor" viewBox="0 0 18 18">
  <path fill-rule="evenodd" d="M6 10.5a1.5 1.5 0 11-3 0 1.5 1.5 0 013 0zm-1 0a.5.5 0 11-1 0 .5.5 0 011 0zM15 10.5a1.5 1.5 0 11-3 0 1.5 1.5 0 013 0zm-1 0a.5.5 0 11-1 0 .5.5 0 011 0z" clip-rule="evenodd"/>
  <path fill-rule="evenodd" d="M16 13.915a1.5 1.5 0 001-1.415v-3a2.5 2.5 0 00-2.152-2.476L14.838 7h.662a.5.5 0 000-1h-1c-.02 0-.04.001-.06.004l-1.224-3.061A1.5 1.5 0 0011.823 2H6.177a1.5 1.5 0 00-1.393.943L3.56 6.003A.505.505 0 003.5 6h-1a.5.5 0 000 1h.661l-.01.024A2.5 2.5 0 001 9.5v3a1.5 1.5 0 001 1.415v.585a1.5 1.5 0 003 0V14h8v.5a1.5 1.5 0 003 0v-.585zM5.713 3.315A.5.5 0 016.177 3h5.646a.5.5 0 01.464.314L13.761 7H4.24l1.474-3.686zM3.5 8A1.5 1.5 0 002 9.5v3a.5.5 0 00.5.5h13a.5.5 0 00.5-.5v-3A1.5 1.5 0 0014.5 8h-11zM15 14h-1v.5a.5.5 0 001 0V14zm-11 .5V14H3v.5a.5.5 0 001 0z" clip-rule="evenodd"/>
</svg>
