<svg xmlns="http://www.w3.org/2000/svg" width="18" height="18" fill="currentColor" viewBox="0 0 18 18">
  <path d="M6 8a1 1 0 100 2 1 1 0 000-2zM8 9a1 1 0 112 0 1 1 0 01-2 0zM12 8a1 1 0 100 2 1 1 0 000-2z"/>
  <path fill-rule="evenodd" d="M9 1.5C4.37 1.5.5 4.797.5 9c0 1.44.46 2.781 1.25 3.918-.012.5-.225 1.393-1.166 2.805A.5.5 0 001 16.5c.58 0 1.274-.145 1.958-.343a21.084 21.084 0 001.837-.637A9.356 9.356 0 009 16.5c4.63 0 8.5-3.297 8.5-7.5 0-4.203-3.87-7.5-8.5-7.5zM1.5 9c0-3.53 3.293-6.5 7.5-6.5s7.5 2.97 7.5 6.5-3.293 6.5-7.5 6.5a8.329 8.329 0 01-3.941-.97.5.5 0 00-.424-.023 20.89 20.89 0 01-1.954.69c-.25.072-.491.133-.717.181.645-1.177.815-2.037.782-2.65a.5.5 0 00-.095-.268C1.92 11.454 1.5 10.268 1.5 9z" clip-rule="evenodd"/>
</svg>
