<svg xmlns="http://www.w3.org/2000/svg" width="18" height="18" fill="currentColor" viewBox="0 0 18 18">
  <path fill-rule="evenodd" d="M7.78 10.584a1.995 1.995 0 01-.166-2.278.501.501 0 00.062.075l8.473 8.473a.498.498 0 10.705-.705L8.381 7.676a.5.5 0 00-.075-.062 1.995 1.995 0 012.431.304.498.498 0 00.734-.674 8.147 8.147 0 00-.21-.24 1.994 1.994 0 013-2.61.498.498 0 10.706-.706l-.353-.352A7.975 7.975 0 103.336 14.614l.352.353a.499.499 0 00.705-.705 1.994 1.994 0 012.82-2.82.499.499 0 00.779-.61.496.496 0 00-.173-.219 4.081 4.081 0 01-.04-.029zm-4.923 1.751c.102-.585.38-1.146.831-1.598a2.98 2.98 0 011.996-.873A10.34 10.34 0 013.59 4.538a6.984 6.984 0 00-.732 7.797zM4.565 4.25a9.358 9.358 0 001.781 4.836c.055-.683.344-1.35.867-1.873a2.979 2.979 0 011.862-.866c-.34-.266-.715-.532-1.117-.781-1.014-.63-2.178-1.142-3.393-1.316zm.352-.953c1.315.225 2.536.782 3.566 1.422.503.312.967.648 1.38.981a2.98 2.98 0 01.874-2.012 2.977 2.977 0 011.598-.83 6.987 6.987 0 00-7.418.439z" clip-rule="evenodd"/>
</svg>
