<svg xmlns="http://www.w3.org/2000/svg" width="18" height="18" fill="currentColor" viewBox="0 0 18 18">
  <path fill-rule="evenodd" d="M12.503 11.672h-2.097V18c.34-.054.674-.127 1-.217A9.05 9.05 0 0018 9.055C18 4.055 13.97 0 9 0S0 4.054 0 9.055a9.05 9.05 0 006.594 8.728c.326.09.66.163 1 .217v-6.328H5.309V9.055h2.285V7.06c0-2.27 1.343-3.523 3.4-3.523.984 0 2.014.177 2.014.177v2.228h-1.135c-1.118 0-1.467.698-1.467 1.414v1.699h2.496l-.399 2.617zm-1.097-3.617v-.699c0-.214.054-.302.073-.323a.16.16 0 01.067-.043c.05-.02.15-.048.327-.048h2.135V2.871l-.83-.143-.17.986.17-.986h-.006l-.012-.002-.04-.007a16.031 16.031 0 00-.635-.087c-.4-.046-.946-.095-1.492-.095-1.232 0-2.36.38-3.18 1.206-.82.827-1.22 1.985-1.22 3.317v.995H4.31v4.617h2.285v4.067A8.053 8.053 0 011 9.055C1 4.601 4.587 1 9 1c4.412 0 8 3.6 8 8.055a8.053 8.053 0 01-5.594 7.684v-4.067h1.956l.704-4.617h-2.66z" clip-rule="evenodd"/>
</svg>
