<svg xmlns="http://www.w3.org/2000/svg" width="18" height="18" fill="currentColor" viewBox="0 0 18 18">
  <path d="M4.5 6a.5.5 0 01.5.5V7h.5a.5.5 0 010 1H5v.5a.5.5 0 01-1 0V8h-.5a.5.5 0 010-1H4v-.5a.5.5 0 01.5-.5zM13.5 7a.5.5 0 100-1 .5.5 0 000 1zM12.5 8a.5.5 0 100-1 .5.5 0 000 1zM14.5 8a.5.5 0 110-1 .5.5 0 010 1zM13.5 9a.5.5 0 100-1 .5.5 0 000 1z"/>
  <path fill-rule="evenodd" d="M3.146 3.146A.5.5 0 013.5 3h2a.5.5 0 01.354.146L6.707 4h4.586l.853-.854A.5.5 0 0112.5 3h2a.5.5 0 01.354.146l1.414 1.415A2.5 2.5 0 0117 6.328v6.695a1.977 1.977 0 01-3.828.694l-.76-2.026a1.5 1.5 0 01-2.327-.69h-2.17a1.5 1.5 0 01-2.217.767l-.394 1.577A2.185 2.185 0 011 12.815V6.328a2.5 2.5 0 01.732-1.767l1.414-1.415zM5 10.5a1.5 1.5 0 012.915-.5h2.17a1.5 1.5 0 012.912.4l1.112 2.966A.977.977 0 0016 13.023V6.328a1.5 1.5 0 00-.44-1.06L14.294 4h-1.586l-.853.854A.5.5 0 0111.5 5h-5a.5.5 0 01-.354-.146L5.293 4H3.707L2.44 5.268A1.5 1.5 0 002 6.328v6.487a1.185 1.185 0 002.334.288L5 10.433A1.529 1.529 0 005 10.5zm6.5.5a.5.5 0 110-1 .5.5 0 010 1zM7 10.5a.5.5 0 11-1 0 .5.5 0 011 0z" clip-rule="evenodd"/>
</svg>
