<svg xmlns="http://www.w3.org/2000/svg" width="18" height="18" fill="currentColor" viewBox="0 0 18 18">
  <path fill-rule="evenodd" d="M5 1.5a.5.5 0 00-1 0v5a.5.5 0 00.5.5H5v9.5a.5.5 0 00.5.5h2a.5.5 0 00.5-.5V7h.5a.5.5 0 00.5-.5v-5a.5.5 0 00-1 0V6H7V1.5a.5.5 0 00-1 0V6H5V1.5zM7 8V7H6v1h1zM6 9h1v7H6V9zM11 16.5V2.32a1.32 1.32 0 012.617-.244l1.25 6.67a2.5 2.5 0 01-.22 1.58l-.489.975a1.5 1.5 0 00-.158.671V16.5a.5.5 0 01-.5.5h-2a.5.5 0 01-.5-.5zm1-14.18a.32.32 0 01.634-.06l1.25 6.67a1.5 1.5 0 01-.132.948l-.488.976a2.428 2.428 0 00-.067.146H12V2.32zM12 12h1v4h-1v-4z" clip-rule="evenodd"/>
</svg>
