<svg xmlns="http://www.w3.org/2000/svg" width="18" height="18" fill="currentColor" viewBox="0 0 18 18">
  <path fill-rule="evenodd" d="M9 13a4 4 0 100-8 4 4 0 000 8zm0-1a3 3 0 100-6 3 3 0 000 6z" clip-rule="evenodd"/>
  <path d="M14.5 4.5a1 1 0 11-2 0 1 1 0 012 0z"/>
  <path fill-rule="evenodd" d="M1.436 3.184C1 4.04 1 5.16 1 7.4v3.2c0 2.24 0 3.36.436 4.216a4 4 0 001.748 1.748C4.04 17 5.16 17 7.4 17h3.2c2.24 0 3.36 0 4.216-.436a4 4 0 001.748-1.748C17 13.96 17 12.84 17 10.6V7.4c0-2.24 0-3.36-.436-4.216a4 4 0 00-1.748-1.748C13.96 1 12.84 1 10.6 1H7.4c-2.24 0-3.36 0-4.216.436a4 4 0 00-1.748 1.748zM10.6 2H7.4c-1.137 0-1.929 0-2.546.051-.605.05-.953.142-1.216.276a3 3 0 00-1.311 1.311c-.134.263-.226.611-.276 1.216C2.001 5.471 2 6.264 2 7.4v3.2c0 1.137 0 1.929.051 2.546.05.605.142.953.276 1.216a3 3 0 001.311 1.311c.263.134.611.226 1.216.276.617.05 1.41.051 2.546.051h3.2c1.137 0 1.929 0 2.546-.051.605-.05.953-.142 1.216-.276a3 3 0 001.311-1.311c.134-.263.226-.611.276-1.216.05-.617.051-1.41.051-2.546V7.4c0-1.137 0-1.929-.051-2.546-.05-.605-.142-.953-.276-1.216a3 3 0 00-1.311-1.311c-.263-.134-.611-.226-1.216-.276C12.529 2.001 11.736 2 10.6 2z" clip-rule="evenodd"/>
</svg>
