<svg xmlns="http://www.w3.org/2000/svg" width="18" height="18" fill="currentColor" viewBox="0 0 18 18">
  <path fill-rule="evenodd" d="M14 2.5a1.5 1.5 0 013 0v1a.5.5 0 01-1 0v-1a.5.5 0 00-1 0v6.414c.384 0 .768.147 1.06.44l.794.792a.5.5 0 01-.708.707l-.792-.792a.5.5 0 00-.708 0l-.585.585a1.5 1.5 0 01-2.122 0l-.585-.585a.5.5 0 00-.708 0l-.585.585a1.5 1.5 0 01-2.122 0l-.585-.585a.5.5 0 00-.708 0l-.585.585a1.5 1.5 0 01-2.122 0l-.585-.585a.5.5 0 00-.708 0l-.792.793a.5.5 0 11-.708-.708l.793-.792a1.5 1.5 0 012.122 0l.585.585a.5.5 0 00.708 0l.585-.585a1.5 1.5 0 012.122 0l.585.585c.1.1.23.149.361.147A.503.503 0 019 10V2.5a1.5 1.5 0 113 0V3a.5.5 0 01-1 0v-.5a.5.5 0 00-1 0V5h4V2.5zM10 8v1.296a1.5 1.5 0 012.06.058l.586.585a.5.5 0 00.708 0l.585-.585A1.6 1.6 0 0114 9.296V8h-4zm4-1h-4V6h4v1z" clip-rule="evenodd"/>
  <path d="M14.646 13.06l-.585.586a1.5 1.5 0 01-2.122 0l-.585-.585a.5.5 0 00-.708 0l-.585.585a1.5 1.5 0 01-2.122 0l-.585-.585a.5.5 0 00-.708 0l-.585.585a1.5 1.5 0 01-2.122 0l-.585-.585a.5.5 0 00-.708 0l-.792.793a.5.5 0 11-.708-.708l.793-.793a1.5 1.5 0 012.122 0l.585.586a.5.5 0 00.708 0l.585-.585a1.5 1.5 0 012.122 0l.585.585a.5.5 0 00.708 0l.585-.585a1.5 1.5 0 012.122 0l.585.585a.5.5 0 00.708 0l.585-.585a1.5 1.5 0 012.122 0l.793.792a.5.5 0 01-.708.707l-.792-.792a.5.5 0 00-.708 0zM14.646 16.06l-.585.586a1.5 1.5 0 01-2.122 0l-.585-.585a.5.5 0 00-.708 0l-.585.585a1.5 1.5 0 01-2.122 0l-.585-.585a.5.5 0 00-.708 0l-.585.585a1.5 1.5 0 01-2.122 0l-.585-.585a.5.5 0 00-.708 0l-.792.793a.5.5 0 11-.708-.708l.793-.793a1.5 1.5 0 012.122 0l.585.586a.5.5 0 00.708 0l.585-.585a1.5 1.5 0 012.122 0l.585.585a.5.5 0 00.708 0l.585-.585a1.5 1.5 0 012.122 0l.585.585a.5.5 0 00.708 0l.585-.585a1.5 1.5 0 012.122 0l.793.792a.5.5 0 01-.708.707l-.792-.792a.5.5 0 00-.708 0z"/>
</svg>
