<svg xmlns="http://www.w3.org/2000/svg" width="18" height="18" fill="currentColor" viewBox="0 0 18 18">
  <path d="M11.293 6L9 8.293 7.854 7.146a.5.5 0 00-.708 0l-2 2a.5.5 0 10.708.708L7.5 8.207l1.146 1.147a.5.5 0 00.708 0L12 6.707V7.5a.5.5 0 001 0v-2a.5.5 0 00-.5-.5h-2a.5.5 0 000 1h.793z"/>
  <path fill-rule="evenodd" d="M1 1.5a.5.5 0 01.5-.5h15a.5.5 0 01.5.5v2a.5.5 0 01-.5.5H16v7h.5a.5.5 0 01.5.5v2a.5.5 0 01-.5.5h-6.432l1.816 2.18a.5.5 0 01-.768.64L9 14.281l-2.116 2.54a.5.5 0 01-.768-.641L7.933 14H1.5a.5.5 0 01-.5-.5v-2a.5.5 0 01.5-.5H2V4h-.5a.5.5 0 01-.5-.5v-2zM16 3V2H2v1h14zM3 4v7h12V4H3zm-1 8v1h14v-1H2z" clip-rule="evenodd"/>
</svg>
