<svg xmlns="http://www.w3.org/2000/svg" width="18" height="18" fill="currentColor" viewBox="0 0 18 18">
  <path d="M7.146 1.146a.5.5 0 11.708.708l-.5.5a.914.914 0 000 1.292c.747.748.747 1.96 0 2.708l-.5.5a.5.5 0 11-.708-.708l.5-.5a.914.914 0 000-1.292 1.914 1.914 0 010-2.708l.5-.5z"/>
  <path fill-rule="evenodd" d="M2.5 8a.5.5 0 00-.5.5v2h-.5a.5.5 0 00-.5.5v2.5a.5.5 0 00.5.5H2v2.5a.5.5 0 00.5.5h13a.5.5 0 00.5-.5V14h.5a.5.5 0 00.5-.5V11a.5.5 0 00-.5-.5H16v-2a.5.5 0 00-.5-.5h-13zM15 10.5V9h-2v1.5h2zm-3 0V9H9.5v1.5H12zm-3.5 0V9H6v1.5h2.5zm-3.5 0V9H3v1.5h2zM15 14h-2v2h2v-2zm-3 0H9.5v2H12v-2zm-3.5 0H6v2h2.5v-2zM5 14H3v2h2v-2zm11-1v-1.5H2V13h14z" clip-rule="evenodd"/>
  <path d="M11.854 1.146a.5.5 0 00-.708 0l-.5.5a1.914 1.914 0 000 2.708.914.914 0 010 1.292l-.5.5a.5.5 0 00.708.708l.5-.5a1.914 1.914 0 000-2.708.914.914 0 010-1.292l.5-.5a.5.5 0 000-.708z"/>
</svg>
