<svg xmlns="http://www.w3.org/2000/svg" width="18" height="18" fill="currentColor" viewBox="0 0 18 18">
  <g clip-path="url(#clip0_255_1039)">
    <path fill-rule="evenodd" d="M0 1.5v15a.5.5 0 001 0V14h2v2.5a.5.5 0 001 0V2.806c1.689.853 3.59 2.617 4.515 6.315 1.037 4.147 3.263 6.144 5.274 7.082a8.68 8.68 0 002.604.746 7.461 7.461 0 001.051.054c.028 0 .05-.002.066-.003h.019l.006-.001h.002l-.037-.5.038.5a.5.5 0 00-.076-.998h-.009l-.044.003c-.041.001-.104.003-.187.002a6.475 6.475 0 01-.708-.05 7.679 7.679 0 01-2.303-.66c-1.739-.81-3.763-2.564-4.726-6.417-1.037-4.147-3.263-6.144-5.274-7.082a8.679 8.679 0 00-2.604-.747A7.48 7.48 0 00.556.997C.528.997.506.999.49 1H.471l-.006.001H.462A.499.499 0 000 1.5zM3 7V5H1v2h2zM1 8h2v2H1V8zm0 3v2h2v-2H1zm2-7H1V2a7.68 7.68 0 012.012.39.502.502 0 00-.012.11V4z" clip-rule="evenodd"/>
  </g>
  <defs>
    <clipPath id="clip0_255_1039">
      <path d="M0 0h18v18H0z"/>
    </clipPath>
  </defs>
</svg>
