<svg xmlns="http://www.w3.org/2000/svg" width="18" height="18" fill="currentColor" viewBox="0 0 18 18">
  <path d="M7.5 5a.5.5 0 100 1 .5.5 0 000-1zM10 5.5a.5.5 0 111 0 .5.5 0 01-1 0zM9 6a.5.5 0 100 1 .5.5 0 000-1z"/>
  <path fill-rule="evenodd" d="M10.044 2.138a1.5 1.5 0 112.27 1.622 4 4 0 11-6.629 0A1.499 1.499 0 016.5 1a1.5 1.5 0 011.456 1.138 4.005 4.005 0 012.088 0zM12 2.5a.5.5 0 01-.373.484 4.01 4.01 0 00-.626-.448A.5.5 0 1112 2.5zm-5.001.036c-.223.13-.433.28-.626.448a.5.5 0 11.626-.448zM9 9a3 3 0 100-6 3 3 0 000 6z" clip-rule="evenodd"/>
  <path fill-rule="evenodd" d="M12.667 7.6a4 4 0 01-.544.9 4 4 0 11-6.245 0 3.999 3.999 0 01-.545-.9 5.031 5.031 0 00-.243.283l-1.53-1.53a1.5 1.5 0 00-2.12 0l-.086.086a1.5 1.5 0 000 2.122l2.65 2.65c.03.72.212 1.4.515 2.01l-.766.51a.277.277 0 01-.35-.035 1.277 1.277 0 00-1.806 0l-.16.16a1.5 1.5 0 00.123 2.232l1.003.803a1.5 1.5 0 001.874 0l1.875-1.5a.502.502 0 00.102-.11C7.17 15.736 8.054 16 9 16s1.831-.263 2.586-.72c.027.041.061.078.102.11l1.875 1.5a1.5 1.5 0 001.874 0l1.003-.802a1.5 1.5 0 00.123-2.232l-.16-.16a1.277 1.277 0 00-1.806 0 .277.277 0 01-.35.035l-.766-.51c.303-.61.485-1.29.515-2.01l2.65-2.65a1.5 1.5 0 000-2.122l-.085-.085a1.5 1.5 0 00-2.122 0l-1.53 1.53a5.02 5.02 0 00-.242-.283zm3.272.254l-2.058 2.058a4.96 4.96 0 00-.418-1.168l1.684-1.683a.5.5 0 01.707 0l.085.085a.5.5 0 010 .708zM4.12 9.912L2.06 7.854a.5.5 0 010-.708l.085-.085a.5.5 0 01.708 0l1.683 1.683a4.964 4.964 0 00-.418 1.168zm10.069 6.198l-1.796-1.437c.202-.186.388-.389.557-.606l.744.496c.506.337 1.18.27 1.611-.16a.277.277 0 01.392 0l.16.16a.5.5 0 01-.04.745l-1.004.802a.5.5 0 01-.624 0zm-8.58-1.437a5.03 5.03 0 01-.557-.606l-.744.496a1.277 1.277 0 01-1.611-.16.277.277 0 00-.392 0l-.16.16a.5.5 0 00.04.745l1.004.802a.5.5 0 00.624 0l1.796-1.437z" clip-rule="evenodd"/>
</svg>
