<svg xmlns="http://www.w3.org/2000/svg" width="18" height="18" fill="currentColor" viewBox="0 0 18 18">
  <path fill-rule="evenodd" d="M3.92 1.355L1.828 3.447a2.828 2.828 0 000 3.999l8.726 8.726a2.828 2.828 0 004 0l2.09-2.092a1.212 1.212 0 000-1.715l-1.22-1.22a2.64 2.64 0 00-3.224-.397 2.64 2.64 0 01-3.225-.397L7.65 9.025A2.64 2.64 0 017.252 5.8a2.64 2.64 0 00-.397-3.225l-1.22-1.22a1.212 1.212 0 00-1.715 0zM2.535 6.74l8.726 8.726a1.828 1.828 0 002.585 0l2.092-2.092a.213.213 0 000-.3l-1.22-1.22a1.64 1.64 0 00-2.003-.247 3.64 3.64 0 01-4.447-.547L6.941 9.732a3.64 3.64 0 01-.547-4.447 1.64 1.64 0 00-.247-2.003l-1.22-1.22a.212.212 0 00-.3 0L2.535 4.154a1.828 1.828 0 000 2.585z" clip-rule="evenodd"/>
  <path d="M10 4.5a.5.5 0 01.5-.5h1A2.5 2.5 0 0114 6.5v1a.5.5 0 01-1 0v-1A1.5 1.5 0 0011.5 5h-1a.5.5 0 01-.5-.5zM12.5 2a.5.5 0 000 1h1A1.5 1.5 0 0115 4.5v1a.5.5 0 001 0v-1A2.5 2.5 0 0013.5 2h-1z"/>
</svg>
