<svg xmlns="http://www.w3.org/2000/svg" width="18" height="18" fill="currentColor" viewBox="0 0 18 18">
  <path fill-rule="evenodd" d="M9.354 1.146a.5.5 0 00-.708 0l-3.5 3.5A.5.5 0 005.5 5.5h.793L3.146 8.646A.5.5 0 003.5 9.5h1.066l-2.482 3.723A.5.5 0 002.5 14H7v2.5a.5.5 0 00.5.5h3a.5.5 0 00.5-.5V14h4.5a.5.5 0 00.416-.777L13.434 9.5H14.5a.5.5 0 00.354-.854L11.707 5.5h.793a.5.5 0 00.354-.854l-3.5-3.5zM10 14v2H8v-2h2zm4.566-1l-2.482-3.723A.5.5 0 0112.5 8.5h.793l-3.147-3.146A.5.5 0 0110.5 4.5h.793L9 2.207 6.707 4.5H7.5a.5.5 0 01.354.854L4.707 8.5H5.5a.5.5 0 01.416.777L3.434 13h11.132z" clip-rule="evenodd"/>
</svg>
