<svg xmlns="http://www.w3.org/2000/svg" width="18" height="18" fill="currentColor" viewBox="0 0 18 18">
  <path d="M12.707 10.036l-.123-.063c-.076-.032-.26-.115-.469-.21-.347-.158-.767-.349-.88-.392-.183-.069-.31-.086-.438.086-.114.169-.43.516-.575.674l-.045.049c-.11.12-.237.138-.42.052l-.094-.039c-.267-.106-.837-.331-1.491-.873-.583-.482-.984-1.102-1.094-1.274-.11-.19-.018-.293.091-.379.064-.06.137-.145.206-.226l.086-.1c.066-.076.104-.141.147-.218.016-.029.034-.06.054-.092.072-.12.036-.224-.019-.327-.04-.063-.255-.568-.432-.983l-.17-.394c-.146-.323-.293-.316-.4-.311a.781.781 0 01-.037.001c-.052 0-.113-.004-.177-.008C6.36 5.005 6.287 5 6.221 5a.809.809 0 00-.528.224l-.043.043c-.208.21-.65.657-.65 1.506 0 .869.646 1.707.785 1.888l.017.022.028.039c.214.302 1.456 2.052 3.345 2.749 1.669.616 1.948.552 2.206.493.051-.011.102-.023.163-.029.365-.034 1.167-.447 1.331-.877.146-.413.146-.775.091-.86-.042-.054-.129-.097-.26-.162z"/>
  <path fill-rule="evenodd" d="M9 .5a8.5 8.5 0 00-7.308 12.843L.526 16.842a.5.5 0 00.606.64l3.777-1.03A8.5 8.5 0 109 .5zM1.5 9a7.5 7.5 0 113.728 6.484.5.5 0 00-.384-.05l-3.074.838.944-2.834a.5.5 0 00-.052-.426A7.463 7.463 0 011.5 9z" clip-rule="evenodd"/>
</svg>
