<svg xmlns="http://www.w3.org/2000/svg" width="18" height="18" fill="currentColor" viewBox="0 0 18 18">
  <path fill-rule="evenodd" d="M9.5 4h.55a2.5 2.5 0 012.45-2h.5a3 3 0 013 3v3h.5a.5.5 0 010 1H16v2.5a2.5 2.5 0 01-2.5 2.5v.5a.5.5 0 00.5.5h.5a.5.5 0 010 1H14a1.5 1.5 0 01-1.5-1.5V14h-7v.5A1.5 1.5 0 014 16h-.5a.5.5 0 010-1H4a.5.5 0 00.5-.5V14A2.5 2.5 0 012 11.5V9h-.5a.5.5 0 010-1H15V5a2 2 0 00-2-2h-.5a1.5 1.5 0 00-1.415 1h.415a.5.5 0 010 1h-2a.5.5 0 010-1zM3 9v2.5A1.5 1.5 0 004.5 13h9a1.5 1.5 0 001.5-1.5V9H3z" clip-rule="evenodd"/>
</svg>
