<svg xmlns="http://www.w3.org/2000/svg" width="18" height="18" fill="currentColor" viewBox="0 0 18 18">
  <path fill-rule="evenodd" d="M1 3.5v5.085A1.5 1.5 0 000 10v3.5a1.5 1.5 0 001 1.415V16.5a.5.5 0 001 0V15h14v1.5a.5.5 0 001 0v-1.585a1.5 1.5 0 001-1.415V10a1.5 1.5 0 00-1-1.415V3.5A2.5 2.5 0 0014.5 1h-11A2.5 2.5 0 001 3.5zM3.5 2A1.5 1.5 0 002 3.5V8l.667-.5A2.5 2.5 0 013 7.289V5.5A1.5 1.5 0 014.5 4h3A1.5 1.5 0 019 5.5 1.5 1.5 0 0110.5 4h3A1.5 1.5 0 0115 5.5v1.789c.116.061.227.132.333.211L16 8V3.5A1.5 1.5 0 0014.5 2h-11zM1 13v.5a.5.5 0 00.5.5h15a.5.5 0 00.5-.5V13H1zm16-1H1v-2a.5.5 0 01.5-.5h15a.5.5 0 01.5.5v2zM4 5.5a.5.5 0 01.5-.5h3a.5.5 0 01.5.5V7H4.167c-.056 0-.112.002-.167.006V5.5zm10 1.506V5.5a.5.5 0 00-.5-.5h-3a.5.5 0 00-.5.5V7h3.833c.056 0 .112.002.167.006zM4.167 8a1.5 1.5 0 00-.9.3L3 8.5h12l-.267-.2a1.5 1.5 0 00-.9-.3H4.167z" clip-rule="evenodd"/>
</svg>
