<svg xmlns="http://www.w3.org/2000/svg" width="18" height="18" fill="currentColor" viewBox="0 0 18 18">
  <path d="M12.118 8.13a1.505 1.505 0 001.013-2.023l-3.062-.331.154 1.105a1.517 1.517 0 001.895 1.25z"/>
  <path fill-rule="evenodd" d="M9 2.091L13.1 1l1.8 4.393c.714 1.747-.14 3.703-1.835 4.414l1.49 5.525 1.844-.49a.473.473 0 11.247.915l-4.61 1.227a.474.474 0 11-.247-.915l1.845-.492-1.491-5.524c-1.827.226-3.551-1.044-3.811-2.912l-.655-4.698.04.288-2.25-.599L3.984 5.75a2.451 2.451 0 001.65 3.296 2.48 2.48 0 002.849-1.268c.12.353.297.676.516.96a3.44 3.44 0 01-3.143 1.315l-1.49 5.524 1.843.491a.474.474 0 11-.247.916l-4.61-1.227a.474.474 0 11.248-.915l1.844.49 1.49-5.525c-1.695-.71-2.55-2.667-1.834-4.414L4.899 1 9 2.091zm5.015 3.66l-1.481-3.619-3.796 1.01.54 3.87c.203 1.462 1.651 2.416 3.087 2.034a2.451 2.451 0 001.65-3.296z" clip-rule="evenodd"/>
  <path d="M4.869 6.107A1.505 1.505 0 005.882 8.13a1.517 1.517 0 001.895-1.249l.154-1.105-3.062.331z"/>
</svg>
