<svg xmlns="http://www.w3.org/2000/svg" width="18" height="18" fill="currentColor" viewBox="0 0 18 18">
  <path d="M7.854.146a.5.5 0 00-.708 0l-.5.5a1.914 1.914 0 000 2.708.914.914 0 010 1.292l-.5.5a.5.5 0 10.708.708l.5-.5a1.914 1.914 0 000-2.708.914.914 0 010-1.292l.5-.5a.5.5 0 000-.708zM11.146.146a.5.5 0 01.708.708l-.5.5a.914.914 0 000 1.292c.747.748.747 1.96 0 2.708l-.5.5a.5.5 0 01-.708-.708l.5-.5a.914.914 0 000-1.292 1.914 1.914 0 010-2.708l.5-.5z"/>
  <path fill-rule="evenodd" d="M2.5 7a.5.5 0 00-.5.5c0 1.912.766 3.644 2.009 4.908A.501.501 0 004 12.5v4a.5.5 0 001 0V16h8v.5a.5.5 0 001 0v-4.017a6.837 6.837 0 002-4.842.641.641 0 00-.641-.641H2.5zM13 15v-1.688A6.826 6.826 0 019.141 14.5H9a6.968 6.968 0 01-4-1.255V15h8zm-4-1.5A6.001 6.001 0 013.544 10h10.962a5.86 5.86 0 01-5.365 3.5H9zM3.02 8c.029.342.086.676.169 1H4V8h-.98zM5 8v1h2V8H5zm9.842 1H14V8h.99c-.021.342-.072.676-.148 1zM13 8v1h-2V8h2zM8 8v1h2V8H8z" clip-rule="evenodd"/>
</svg>
