<svg xmlns="http://www.w3.org/2000/svg" width="18" height="18" fill="currentColor" viewBox="0 0 18 18">
  <path fill-rule="evenodd" d="M12 6a3 3 0 11-6 0 3 3 0 016 0zm-1 0a2 2 0 11-4 0 2 2 0 014 0z" clip-rule="evenodd"/>
  <path fill-rule="evenodd" d="M15 6c0 2.664-3.879 8.802-5.4 11.105-.37.561-.6.895-.6.895s-.23-.334-.6-.895C6.878 14.802 3 8.665 3 6a6 6 0 1112 0zm-1 0c0 .601-.294 1.597-.853 2.87-.541 1.233-1.271 2.594-2.012 3.87a78.7 78.7 0 01-2.036 3.306L9 16.198l-.099-.152a78.689 78.689 0 01-2.036-3.305c-.741-1.277-1.47-2.638-2.012-3.87C4.293 7.597 4 6.6 4 6a5 5 0 0110 0z" clip-rule="evenodd"/>
</svg>
