<svg xmlns="http://www.w3.org/2000/svg" width="18" height="18" fill="currentColor" viewBox="0 0 18 18">
  <g clip-path="url(#clip0_60_398)">
    <path d="M16.5 10.25a.5.5 0 01-.5-.5V7.917a.5.5 0 011 0V9.75a.5.5 0 01-.5.5zM16.5 6.583a.5.5 0 01-.5-.5V4.25a.5.5 0 011 0v1.833a.5.5 0 01-.5.5zM16.5 2.917a.5.5 0 01-.5-.5V2h-.417a.5.5 0 010-1h.917a.5.5 0 01.5.5v.917a.5.5 0 01-.5.5zM10.583 1.5a.5.5 0 01-.5.5H8.25a.5.5 0 010-1h1.833a.5.5 0 01.5.5zM14.25 1.5a.5.5 0 01-.5.5h-1.833a.5.5 0 110-1h1.833a.5.5 0 01.5.5zM2.146 1.146a.5.5 0 01.708 0l2 2a.5.5 0 11-.708.708L3 2.707V15h12.293l-1.147-1.146a.5.5 0 01.708-.708l2 2a.5.5 0 010 .708l-2 2a.5.5 0 01-.708-.708L15.293 16H2.5a.5.5 0 01-.5-.5V2.707L.854 3.854a.5.5 0 11-.708-.708l2-2z"/>
  </g>
  <defs>
    <clipPath id="clip0_60_398">
      <path d="M0 0h18v18H0z"/>
    </clipPath>
  </defs>
</svg>
