<svg xmlns="http://www.w3.org/2000/svg" width="18" height="18" fill="currentColor" viewBox="0 0 18 18">
  <path fill-rule="evenodd" d="M7.136 7.556A6.482 6.482 0 019 3a6.482 6.482 0 011.863 4.556 6.32 6.32 0 014.5-1.887h.001a6.455 6.455 0 01-1.864 4.556 6.295 6.295 0 014.5 1.887 6.305 6.305 0 01-9 0 6.305 6.305 0 01-9 0 6.295 6.295 0 014.5-1.887A6.455 6.455 0 012.636 5.67h.001a6.32 6.32 0 014.499 1.887zM9 10.514a5.495 5.495 0 010-5.916 5.495 5.495 0 010 5.916zm-1.116.468C5.817 10.54 4.19 8.892 3.752 6.8c2.067.443 3.694 2.09 4.132 4.183zM14.248 6.8c-.438 2.093-2.065 3.74-4.132 4.183.438-2.092 2.065-3.74 4.132-4.183zM7.42 12.113a5.315 5.315 0 01-5.842 0 5.315 5.315 0 015.842 0zm9 0a5.315 5.315 0 01-5.842 0 5.315 5.315 0 015.842 0z" clip-rule="evenodd"/>
</svg>
