<svg xmlns="http://www.w3.org/2000/svg" width="18" height="18" fill="currentColor" viewBox="0 0 18 18">
  <path d="M3.5 3a.5.5 0 000 1h1a.5.5 0 000-1h-1zM6 3.5a.5.5 0 01.5-.5h1a.5.5 0 010 1h-1a.5.5 0 01-.5-.5z"/>
  <path fill-rule="evenodd" d="M13 11a4 4 0 11-8 0 4 4 0 018 0zm-1.012.27a3 3 0 01-4.974 1.979c.724-.023 1.582-.377 2.386-1.45.322-.43.65-.645.946-.75.299-.105.598-.108.877-.057a2.572 2.572 0 01.765.278zm-.116-1.14a3.333 3.333 0 00-.47-.122 2.694 2.694 0 00-1.389.099c-.501.177-.986.523-1.413 1.093-.668.89-1.277 1.05-1.663 1.05a1.415 1.415 0 01-.662-.168l-.002-.001a.495.495 0 00-.09-.046 3 3 0 115.689-1.904z" clip-rule="evenodd"/>
  <path fill-rule="evenodd" d="M1 15.5v-13A1.5 1.5 0 012.5 1h13A1.5 1.5 0 0117 2.5v13a1.5 1.5 0 01-1.5 1.5h-13A1.5 1.5 0 011 15.5zm1-13a.5.5 0 01.5-.5h13a.5.5 0 01.5.5V3h-4.586a1.5 1.5 0 00-1.06.44L8.939 4.853A.5.5 0 018.586 5H2V2.5zM11.414 4H16v11.5a.5.5 0 01-.5.5h-13a.5.5 0 01-.5-.5V6h6.586a1.5 1.5 0 001.06-.44l1.415-1.414A.5.5 0 0111.414 4z" clip-rule="evenodd"/>
</svg>
