<svg xmlns="http://www.w3.org/2000/svg" width="18" height="18" fill="currentColor" viewBox="0 0 18 18">
  <g clip-path="url(#clip0_148_2481)">
    <path d="M16.425 6.075c-4.1-4.1-10.75-4.1-14.85 0l-.721.722a.5.5 0 11-.708-.707l.722-.722c4.491-4.49 11.773-4.49 16.264 0l.722.722a.5.5 0 01-.708.707l-.721-.722z"/>
    <path d="M2.99 8.661a8.5 8.5 0 0112.02 0l.136.136a.5.5 0 00.708-.707l-.136-.136a9.5 9.5 0 00-13.436 0l-.136.136a.5.5 0 10.708.707l.136-.136z"/>
    <path d="M12.89 10.54a5.5 5.5 0 00-7.78 0l-.256.257a.5.5 0 11-.708-.707l.258-.257a6.5 6.5 0 019.192 0l.258.257a.5.5 0 01-.708.707l-.257-.257z"/>
    <path d="M10.768 12.418a2.5 2.5 0 00-3.536 0l-.378.38a.5.5 0 11-.708-.708l.38-.379a3.5 3.5 0 014.949 0l.379.38a.5.5 0 01-.708.706l-.378-.379zM9 15.5a1 1 0 100-2 1 1 0 000 2z"/>
  </g>
  <defs>
    <clipPath id="clip0_148_2481">
      <path d="M0 0h18v18H0z"/>
    </clipPath>
  </defs>
</svg>
